<!-- https://materialdesignicons.com/ -->

<svg xmlns="http://www.w3.org/2000/svg" width="0" height="0">

  <symbol id="menu" viewBox="0 0 24 24">
    <path d="M3,6H21V8H3V6M3,11H21V13H3V11M3,16H21V18H3V16Z" />
  </symbol>

  <symbol id="close" viewBox="0 0 24 24">
    <path
      d="M19,6.41L17.59,5L12,10.59L6.41,5L5,6.41L10.59,12L5,17.59L6.41,19L12,13.41L17.59,19L19,17.59L13.41,12L19,6.41Z" />
  </symbol>

  <symbol id="pwa" viewBox="0 0 512 512">
    <path
      d="M0 255.9V353h49v-65.8l23.3-.5c13.3-.2 25.6-1 28.9-1.7 5.2-1.1 5.9-1.6 6.7-4.4.4-1.7 7.5-23.5 15.6-48.4l14.7-45.3-2.8-4c-6.5-9.4-19.4-17.7-33.4-21.5-5.7-1.5-12.5-1.8-54.2-2.1L0 158.8zm84.6-55.2c9.2 4.9 13 12.6 12.2 24.8-.5 7.8-2.1 11.6-6.8 16.2-5 4.9-11.2 6.3-27.1 6.3H49v-50.2l15.8.4c13.8.3 16.2.6 19.8 2.5M206.5 220c-11 33.5-20.3 61-20.7 61s-6.9-12.2-14.4-27.2c-9.3-18.6-13.9-26.7-14.4-25.7-.4.7-6.5 18.9-13.4 40.3l-12.6 39 8.4 14.5c4.6 8 10.5 18.3 13.2 22.9l4.8 8.2 26-.2 25.9-.3 4.3-13c2.4-7.2 10.5-31.8 18-54.8l13.7-41.8 17.2 54.8 17.1 54.8 26 .3 26 .2 38.2-94.8c21.1-52.1 38.5-95.8 38.9-97l.5-2.2-26.2.2-26.3.3-26.2 61.4c-25.4 59.6-26.3 61.3-27.3 58-.8-2.5-32.7-107.8-35.8-118.2-.5-1.5-2.4-1.7-20.8-1.7h-20.3zm231.7-59c-.6 1.4-6.2 15.7-12.6 31.8C419.2 209 414 223 414 223.9c0 1 4.3 13.7 9.5 28.3s9.5 26.8 9.5 27.2c0 .3-9.4.6-20.9.6h-20.9l-7.5 18.7-7.5 18.8 34.7.3 34.6.2 6.1 17.3 6.1 17.2 27.3.3 27.2.2-.4-2.2c-.6-2.5-70.5-188.4-71.8-190.8-.7-1.2-1-1-1.8 1" />
  </symbol>

  <symbol id="info" viewBox="0 0 24 24">
    <path
      d="M11,9H13V7H11M12,20C7.59,20 4,16.41 4,12C4,7.59 7.59,4 12,4C16.41,4 20,7.59 20,12C20,16.41 16.41,20 12,20M12,2A10,10 0 0,0 2,12A10,10 0 0,0 12,22A10,10 0 0,0 22,12A10,10 0 0,0 12,2M11,17H13V11H11V17Z" />
  </symbol>

  <symbol id="blog" viewBox="0 0 24 24">
    <path d="M19 5V19H5V5H19M21 3H3V21H21V3M17 17H7V16H17V17M17 15H7V14H17V15M17 12H7V7H17V12Z" />
  </symbol>
 

</svg>