<svg xmlns="http://www.w3.org/2000/svg" version="1.0" viewBox="0 0 250 250">


  <path fill="var(--icon-fill-color, gold)" d="M104 42c-18.5 2.3-44.4 17-62.5 35.4-13.2 13.3-18.9 22.1-18.1 28 1.2 9.8 15.6 16.5 26.1 12.2 3.2-1.4 3.4-1.6 2.5-4.7-1.3-4.3-2.4-5.3-4-3.4-1.8 2.1-14.8 2.2-15.6 0-1.7-4.2 5.9-15.9 18.6-28.5 10.4-10.5 16.8-15.1 30.5-22 18.9-9.6 36-13 47.7-9.6 7.5 2.1 9.8 5.1 9.8 12.3 0 8.6-4.3 15.6-17.5 28.9-6 6.1-13.5 12.9-16.5 15.1-6.9 5.2-17 11.3-18.6 11.3-.8 0-.5-2.2 1.2-7.1C88.9 106 90 102 90 101s.4-2 .8-2.2 2.2-3.9 4.1-8.3c1.8-4.4 4.6-10.4 6.2-13.2 1.6-2.9 2.9-6.1 2.9-7.1s.5-2.3 1-2.8c1.7-1.7-1.2-4.4-5.3-5.1-3.1-.5-4.2-.2-6.3 1.8-8 7.4-23.9 50.8-27.8 75.9-2.9 18.6-2.7 29.4.5 32.4.9.8 1 .8.5-.2-1.1-1.8.1-1.5 2.4.8 1.1 1.1 3.1 2 4.3 2 2.3 0 2.4-.3 3.1-11.8.5-9.9 5.2-36.2 6.7-37.6.3-.3 2.3 0 4.6.6 3.7.9 4.8.7 9.9-1.7 7.9-3.8 16.2-9.9 27.9-20.7C143.2 87.4 148 79.7 148 67.3c0-6.6-.4-8.2-2.5-11.4-7.8-11.1-23.1-16.3-41.5-13.9m2.7 1.6c-.3.3-1.2.4-1.9.1-.8-.3-.5-.6.6-.6 1.1-.1 1.7.2 1.3.5M93 47.5c-5.2 1.8-9.6 3.2-9.8 3-.3-.3 3.2-1.7 12.3-4.9 2.2-.8 4.7-1.5 5.5-1.5s-2.8 1.5-8 3.4m19.3-.8c-.7.2-1.9.2-2.5 0-.7-.3-.2-.5 1.2-.5s1.9.2 1.3.5m-5.6.9c-.3.3-1.2.4-1.9.1-.8-.3-.5-.6.6-.6 1.1-.1 1.7.2 1.3.5m-4 1c-.3.3-1.2.4-1.9.1-.8-.3-.5-.6.6-.6 1.1-.1 1.7.2 1.3.5M95 51c-.8.5-1.9 1-2.5 1-.5 0-.3-.5.5-1s2-1 2.5-1c.6 0 .3.5-.5 1m-17.8 2.8c-1.8 1-3 2.1-2.7 2.5s.2.5-.1.2c-.4-.2-1.5 0-2.5.6-1.1.5-1.9.8-1.9.5 0-.7 8.3-5.6 9.5-5.5.6 0-.5.8-2.3 1.7M68 59c-.8.6-2.4 1.5-3.5 2.1-1.6.8-1.5.6.4-1 1.3-1.2 2.8-2.1 3.5-2.1.6 0 .4.5-.4 1m10-.5c0 .2-1 .9-2.2 1.5-2.2 1.1-2.2 1-.4-.4 2.1-1.7 2.6-1.9 2.6-1.1m-5 3c0 .2-1 .9-2.2 1.5-2.2 1.1-2.2 1-.4-.4 2.1-1.7 2.6-1.9 2.6-1.1m-14.5 4.1c-2.8 2.1-5.5 3.6-5.5 2.9 0-.6 6.2-4.5 7-4.5.3.1-.4.8-1.5 1.6m3.5 2.8c0 .2-.8 1-1.7 1.7-1.6 1.3-1.7 1.2-.4-.4s2.1-2.1 2.1-1.3m69 16.4c-3.8 5.5-16.6 18.7-25 25.7-2 1.7-2.9 2.6-2 2 4.1-2.5 18.6-15.4 23.6-20.9 3.1-3.3 4.3-4.3 2.6-2.1-6.2 8.2-28.1 27.3-30 26.1-.4-.2-1.4 0-2.2.6-1.2.8-1.2.9.3.4 2.9-.9 1.9.2-2.7 2.9-2.7 1.6-5 2.3-6.1 1.8-1.3-.4-1.6-.3-1.1.5s-.2 1.2-2.1 1.1c-1.5 0-2.2-.3-1.5-.6.6-.2 1-.9.6-1.4-.3-.5.7-1.4 2.2-1.9 8.7-3.3 33.3-23.4 41.1-33.5 3.2-4.1 5.9-7.2 6.1-7.1.2.2-1.5 3.1-3.8 6.4M82 99.1c-2.3 5.7-3.8 8.8-3.5 6.9.6-3.4 6.7-18.2 7.2-17.6.2.1-1.5 5-3.7 10.7m50-4.7c0 .2-.8 1-1.7 1.7-1.6 1.3-1.7 1.2-.4-.4s2.1-2.1 2.1-1.3m-50.4 16.4c-1.2 1.1-1.8-.7-1-3l.8-2.3.4 2.3c.2 1.3.1 2.6-.2 3m-4.7 3.1c-.6 1.7-.8 3.8-.5 4.7.3.8.2 1.2-.3.9s-1.1 0-1.4.7c-.2.7-.2-.1 0-1.7.5-3.4 2.4-8.7 2.9-8.2.2.2-.1 1.8-.7 3.6m3.5-.1c.3.5-.1.9-.9.9s-1.5-.4-1.5-.9c0-.4.4-.8.9-.8.6 0 1.2.4 1.5.8m-6.8 13.6c0 2.4-.4 4.2-.7 4-1.4-.8-4.8 21.4-4.9 30.9 0 3.6-.4 5.6-1 5.2-1.4-.9-1.3-5 .6-16.8 1.5-9.6 5.3-27.7 5.9-27.7.1 0 .2 2 .1 4.4m-1.2 12.5c-.4 1.7-.9 3-1.1 2.7-.3-.2-.2-1.9.2-3.6s.9-3 1.1-2.7c.2.2.1 1.8-.2 3.6m-1.7 9.3c-.3.8-.6.5-.6-.6-.1-1.1.2-1.7.5-1.3.3.3.4 1.2.1 1.9m-1 9c-.3.7-.5.2-.5-1.2s.2-1.9.5-1.3c.2.7.2 1.9 0 2.5"/>
</svg>