<svg xmlns="http://www.w3.org/2000/svg" version="1.0" viewBox="0 0 610 216">
<defs>
    <linearGradient id="grad5" x1="0%" y1="100%" x2="100%" y2="0%">
      <stop offset="0%" stop-color="#edca26" />
      <stop offset="100%" stop-color="#cba804" />
    </linearGradient>
  </defs>

  <path fill="url(#grad5)" d="M104 42c-18.5 2.3-44.4 17-62.5 35.4-13.2 13.3-18.9 22.1-18.1 28 1.2 9.8 15.6 16.5 26.1 12.2 3.2-1.4 3.4-1.6 2.5-4.7-1.3-4.3-2.4-5.3-4-3.4-1.8 2.1-14.8 2.2-15.6 0-1.7-4.2 5.9-15.9 18.6-28.5 10.4-10.5 16.8-15.1 30.5-22 18.9-9.6 36-13 47.7-9.6 7.5 2.1 9.8 5.1 9.8 12.3 0 8.6-4.3 15.6-17.5 28.9-6 6.1-13.5 12.9-16.5 15.1-6.9 5.2-17 11.3-18.6 11.3-.8 0-.5-2.2 1.2-7.1C88.9 106 90 102 90 101s.4-2 .8-2.2 2.2-3.9 4.1-8.3c1.8-4.4 4.6-10.4 6.2-13.2 1.6-2.9 2.9-6.1 2.9-7.1s.5-2.3 1-2.8c1.7-1.7-1.2-4.4-5.3-5.1-3.1-.5-4.2-.2-6.3 1.8-8 7.4-23.9 50.8-27.8 75.9-2.9 18.6-2.7 29.4.5 32.4.9.8 1 .8.5-.2-1.1-1.8.1-1.5 2.4.8 1.1 1.1 3.1 2 4.3 2 2.3 0 2.4-.3 3.1-11.8.5-9.9 5.2-36.2 6.7-37.6.3-.3 2.3 0 4.6.6 3.7.9 4.8.7 9.9-1.7 7.9-3.8 16.2-9.9 27.9-20.7C143.2 87.4 148 79.7 148 67.3c0-6.6-.4-8.2-2.5-11.4-7.8-11.1-23.1-16.3-41.5-13.9m2.7 1.6c-.3.3-1.2.4-1.9.1-.8-.3-.5-.6.6-.6 1.1-.1 1.7.2 1.3.5M93 47.5c-5.2 1.8-9.6 3.2-9.8 3-.3-.3 3.2-1.7 12.3-4.9 2.2-.8 4.7-1.5 5.5-1.5s-2.8 1.5-8 3.4m19.3-.8c-.7.2-1.9.2-2.5 0-.7-.3-.2-.5 1.2-.5s1.9.2 1.3.5m-5.6.9c-.3.3-1.2.4-1.9.1-.8-.3-.5-.6.6-.6 1.1-.1 1.7.2 1.3.5m-4 1c-.3.3-1.2.4-1.9.1-.8-.3-.5-.6.6-.6 1.1-.1 1.7.2 1.3.5M95 51c-.8.5-1.9 1-2.5 1-.5 0-.3-.5.5-1s2-1 2.5-1c.6 0 .3.5-.5 1m-17.8 2.8c-1.8 1-3 2.1-2.7 2.5s.2.5-.1.2c-.4-.2-1.5 0-2.5.6-1.1.5-1.9.8-1.9.5 0-.7 8.3-5.6 9.5-5.5.6 0-.5.8-2.3 1.7M68 59c-.8.6-2.4 1.5-3.5 2.1-1.6.8-1.5.6.4-1 1.3-1.2 2.8-2.1 3.5-2.1.6 0 .4.5-.4 1m10-.5c0 .2-1 .9-2.2 1.5-2.2 1.1-2.2 1-.4-.4 2.1-1.7 2.6-1.9 2.6-1.1m-5 3c0 .2-1 .9-2.2 1.5-2.2 1.1-2.2 1-.4-.4 2.1-1.7 2.6-1.9 2.6-1.1m-14.5 4.1c-2.8 2.1-5.5 3.6-5.5 2.9 0-.6 6.2-4.5 7-4.5.3.1-.4.8-1.5 1.6m3.5 2.8c0 .2-.8 1-1.7 1.7-1.6 1.3-1.7 1.2-.4-.4s2.1-2.1 2.1-1.3m69 16.4c-3.8 5.5-16.6 18.7-25 25.7-2 1.7-2.9 2.6-2 2 4.1-2.5 18.6-15.4 23.6-20.9 3.1-3.3 4.3-4.3 2.6-2.1-6.2 8.2-28.1 27.3-30 26.1-.4-.2-1.4 0-2.2.6-1.2.8-1.2.9.3.4 2.9-.9 1.9.2-2.7 2.9-2.7 1.6-5 2.3-6.1 1.8-1.3-.4-1.6-.3-1.1.5s-.2 1.2-2.1 1.1c-1.5 0-2.2-.3-1.5-.6.6-.2 1-.9.6-1.4-.3-.5.7-1.4 2.2-1.9 8.7-3.3 33.3-23.4 41.1-33.5 3.2-4.1 5.9-7.2 6.1-7.1.2.2-1.5 3.1-3.8 6.4M82 99.1c-2.3 5.7-3.8 8.8-3.5 6.9.6-3.4 6.7-18.2 7.2-17.6.2.1-1.5 5-3.7 10.7m50-4.7c0 .2-.8 1-1.7 1.7-1.6 1.3-1.7 1.2-.4-.4s2.1-2.1 2.1-1.3m-50.4 16.4c-1.2 1.1-1.8-.7-1-3l.8-2.3.4 2.3c.2 1.3.1 2.6-.2 3m-4.7 3.1c-.6 1.7-.8 3.8-.5 4.7.3.8.2 1.2-.3.9s-1.1 0-1.4.7c-.2.7-.2-.1 0-1.7.5-3.4 2.4-8.7 2.9-8.2.2.2-.1 1.8-.7 3.6m3.5-.1c.3.5-.1.9-.9.9s-1.5-.4-1.5-.9c0-.4.4-.8.9-.8.6 0 1.2.4 1.5.8m-6.8 13.6c0 2.4-.4 4.2-.7 4-1.4-.8-4.8 21.4-4.9 30.9 0 3.6-.4 5.6-1 5.2-1.4-.9-1.3-5 .6-16.8 1.5-9.6 5.3-27.7 5.9-27.7.1 0 .2 2 .1 4.4m-1.2 12.5c-.4 1.7-.9 3-1.1 2.7-.3-.2-.2-1.9.2-3.6s.9-3 1.1-2.7c.2.2.1 1.8-.2 3.6m-1.7 9.3c-.3.8-.6.5-.6-.6-.1-1.1.2-1.7.5-1.3.3.3.4 1.2.1 1.9m-1 9c-.3.7-.5.2-.5-1.2s.2-1.9.5-1.3c.2.7.2 1.9 0 2.5"/>
  <path fill="url(#grad5)" d="M92.4 119.6c-1.8 1.4-1.8 1.4.6.3 3.1-1.4 3.6-1.9 2.4-1.9-.6 0-1.9.7-3 1.6m462-72.9c-4.5 6.1-15.1 34.8-20.8 56-1.8 7-3.4 10.5-6.2 14-3.6 4.6-3.7 4.7-.6 1.9 6-5.6 3.2-.6-4.7 8.1-4.4 4.8-7.8 8.9-7.6 9.1s1.9-1.4 3.9-3.5c1.9-2.1 3.5-3.4 3.5-2.8 0 1.3-10.9 13.1-10.9 11.8 0-.6.7-1.6 1.5-2.3s1.5-1.7 1.5-2.3-2.3 1.1-5.2 3.8c-4.4 4.3-4.1 3.8 2.4-4 4.2-5 8.3-9.7 9.2-10.4 1.9-1.6 2.1-3.1.4-3.1-.6 0-.9.2-.6.5.7.8-16 17.5-24 23.9-5.7 4.6-8.2 6-11.6 6.3-4.2.5-4.4.4-5.1-2.5-.7-3.4 0-8.3 2.2-15.7 2.9-9.9 3.4-10.7 5.9-10.1 2.9.8 11.4-2.4 15.9-5.8 4.2-3.2 12.1-13.3 14-18 3.5-8.2.8-16.4-5.3-16.8-12.6-.7-19.6 4.4-31.7 22.7-8 12.3-10.8 20.5-10.9 32.5-.2 13.2 4.2 19.7 14.8 22.1 4 .9 6.2.9 8.7 0 6.8-2.2 18.2-14.5 32.2-34.6 1.1-1.4 2-2.5 2.2-2.3s-.5 4.1-1.5 8.7-2.4 13.1-3 18.9c-1.1 10.3-1.1 10.5 1.2 12.9 2.5 2.7 9.7 6.8 10.5 6 .2-.3 1.2-3.1 2.1-6.2l1.7-5.6 5.5-.3c3-.2 7.1-1.1 9-2.1 7.5-3.9 27.5-27.6 30.1-35.7.6-1.8 1.8-4.9 2.7-6.8.8-1.9 1.8-7 2-11.3.4-6.3.1-8.5-1.4-11.3-2.2-4.1-9.9-9.8-12.2-8.9-.8.3-2 .1-2.7-.5-3.3-2.7-14.9 11.6-23.9 29.3-2.6 5.4-4.9 9.7-5.1 9.7-.4 0 .9-4.9 5.4-20.5 2.3-7.7 4.3-14.7 4.4-15.5.2-.8 1.1-3.2 2-5.4.9-2.1 1.7-4.2 1.7-4.6 0-1 7.3-16.4 10-21 1.1-1.9 2-4.2 2-5.1 0-2.5-3.5-5-7.7-5.6-3.3-.4-4.1-.1-5.9 2.4m-4.5 35.2c-.6 1.8-1.3 3-1.5 2.8s.1-1.8.7-3.6 1.3-3 1.5-2.8-.1 1.8-.7 3.6m-2.1 8.1c-.6 2.2-1.5 4-2 4-.6 0-.7-.7-.4-1.6s.9-2.7 1.2-4 1-2.4 1.4-2.4.3 1.8-.2 4m29.7 3.5c1.4 9.2-4.6 23.3-16.7 39.3-6.2 8.2-16.5 18.2-18.8 18.2-.9 0 2.8-10.1 8.2-22.5 6.1-13.9 11.9-24.8 16.6-31 7.6-10.1 9.7-10.9 10.7-4M514 91.7c0 3.3-5.7 13.7-10.1 18.7S491.7 121 489.3 121c-1.7 0 2.3-8.2 8-16.4 3.6-5.1 13.8-14.4 16-14.6.4 0 .7.8.7 1.7m44.8 8.5c-1.4 2.4-3.9 6.9-5.7 10-1.8 3.2-3.5 5.8-3.7 5.8-.5 0 6.6-13.5 9.2-17.5 2.7-4.1 2.8-2.8.2 1.7m-15.8 5c-5.2 21.8-5.9 24.2-6.6 23.5-.8-.7 3.5-19.8 4.8-21.5.6-.6.7-1.2.4-1.2-.4 0-.2-.9.4-2 1.5-2.9 1.9-2.5 1 1.2m38.6 2c-.3 1.8-1.7 6-3.1 9.3-3 7.1-2.9 5.8.5-4.8 2.6-8.1 3.6-9.9 2.6-4.5m-46.9 0c-.3.8-.6.5-.6-.6-.1-1.1.2-1.7.5-1.3.3.3.4 1.2.1 1.9m13.4 12.1c-1 .9-1.1.8-.5-.6.3-1 .9-1.5 1.2-1.2s0 1.1-.7 1.8m-17.7 5.6c-.4 1.7-.9 3-1.1 2.7-.3-.2-.2-1.9.2-3.6.9-4.1 1.7-3.3.9.9m-3.4-1.5c0 .2-.8 1-1.7 1.7-1.6 1.3-1.7 1.2-.4-.4s2.1-2.1 2.1-1.3m41.7 3.4c-1 1-1.7 2.3-1.7 2.9 0 .5-.9 1.8-2 2.8s-1.7 2.2-1.3 2.8c.3.6.1.7-.5.3s-1.8.6-2.7 2.4c-.8 1.6-2 3-2.5 3-.6 0-1 .8-1 1.9 0 1-1.6 3.1-3.6 4.6-1.9 1.5-4.9 4-6.5 5.6S543 156 542 156c-2.8 0-2.5-.7 1.3-2.6 1.7-.9 5.3-4 7.9-6.9 7-7.8 16.8-19.9 16.8-20.8 0-.4.5-.7 1.2-.7.6 0 .4.7-.5 1.8m-40.3 6.6c-.3 2.1-.8 3.5-1.1 3.2-.2-.2-.1-2 .3-4 .3-2.1.8-3.5 1.1-3.2.2.2.1 2-.3 4m8.6-1.9c0 .8-.4 1.5-1 1.5-.5 0-1-.7-1-1.5s.5-1.5 1-1.5c.6 0 1 .7 1 1.5m-3 11.2c-1.1 1.7-1.1 1.7-.6 0 .3-1 .7-2.6.7-3.5.1-1.5.2-1.5.6 0 .2 1-.1 2.5-.7 3.5m26.1 3.1c-.6 1.1-2.7 3.2-4.8 4.7l-3.8 2.8 4.5-4.6c4.8-5.1 5.6-5.6 4.1-2.9m-27 1.5c-1 .9-1.1.8-.5-.6.3-1 .9-1.5 1.2-1.2s0 1.1-.7 1.8M460.7 46.7c-2.5 2.9-2.2 3.5 3.1 6.3l4.7 2.5-.3 7c-.1 3.9-.6 7.1-1.1 7.3-.4.1-.7 1.8-.5 3.7.1 1.9-.1 3.5-.5 3.5-.5 0-1.1 2-1.4 4.5-.9 6-3.2 12.9-10.6 30.9-7.6 18.7-12.8 27.7-20.5 36-9.8 10.4-13.3 10-17.7-2.1-3.5-9.8-3.2-21.9 1-42.1 2-9.2 3-16.4 2.6-18.2-.6-2.8-2.9-4.5-4.6-3.4-.5.3-.9 0-.9-.6s-.4-.8-1-.5c-.5.3-1 .1-1-.6s-.8-.5-2 .6c-1.2 1-1.8 2.5-1.5 3.2.2.8.1 1.2-.4.8-1.1-.6-5.6 5.3-4.7 6.2.3.4 0 1.3-.8 2.2-.7.9-4.7 7.3-8.9 14.3s-8.6 13.7-9.7 14.8c-2 2-2.4 3.2-2.1 5.9.2.7-.2 1.1-.6.8-1.1-.7-4.1 4.1-4.6 7.1-.2 1.2-1 2.9-1.9 3.9s-3 4.6-4.7 8c-1.7 3.5-3.3 6.3-3.5 6.3-1.8 0 11.9-43.6 20.5-65.2 2.1-5.3 6.3-14.9 9.4-21.2 3-6.3 5.5-12.6 5.5-14 0-5.4-7.5-7.8-10.4-3.3-5.2 7.8-22.2 50.2-29.9 74.2-4.2 13.3-8.2 32.4-7.3 35.8 1 4 4.5 7.6 8.1 8.3 6.2 1.1 7.2.1 13.3-12.9 10.3-22.2 27.7-54.6 30.1-56.2.4-.2-.2 4.5-1.2 10.3-3.3 19.4-1 32.6 7.5 42.9 5.1 6.1 9.4 8.5 16.4 9.1 5.1.4 5.1.4 10.9-5.4 7-7.1 10.5-12.5 17.7-26.9 13.3-26.4 22.5-67.1 17.9-78.7-2.1-5.4-11.1-8.6-14.4-5.1m-78.8 39.4c-7.8 19.7-17.6 49.7-20.2 61.4-3.5 15.5-3.5 15.4-3.6 11.9-.3-8 14-54.5 23-74.8 2.3-5.3 4.3-9.5 4.5-9.3s-1.5 5-3.7 10.8m26.5 4.6c-.3 2.1-3 7.6-5.9 12.3s-8.1 13.4-11.5 19.5c-3.4 6-6.6 11.2-7 11.5s-2.2 3.2-4 6.5c-2.8 5.1-8 12.4-8 11.3 0-1 15.7-31.2 20.2-38.8 5.3-9 16.1-26 16.6-26 .2 0 0 1.7-.4 3.7m1.9 14c-.7 4.3-2 13.4-2.7 20.3l-1.4 12.5-.1-8.2c-.1-8.7 3.7-32.3 5.2-32.3.2 0-.2 3.5-1 7.7m-3.3 3c-1.1 1.7-1.1 1.7-.6 0 .3-1 .6-2.4.7-3 0-.9.2-.9.5 0 .3.7 0 2-.6 3m-.8 6c-.3 1.6-.7 2.2-1 1.5-.4-1.3.4-4.2 1.1-4.2.2 0 .2 1.2-.1 2.7m-35.8 12.7c-.9 2.6-1.8 4.5-2 4.3s.3-2.5 1.2-5.1 1.8-4.5 2-4.3-.3 2.5-1.2 5.1m39.3 13.8c-.3.8-.6.5-.6-.6-.1-1.1.2-1.7.5-1.3.3.3.4 1.2.1 1.9m-47 13c-.3.8-.6.5-.6-.6-.1-1.1.2-1.7.5-1.3.3.3.4 1.2.1 1.9M733 46.1c-8.1 1-19 3.4-29.7 6.5-7.5 2.2-8.4 2.2-11.7.9-5.1-2.2-5.8-1.9-8.4 2.5-2.1 3.7-2.9 4.1-12 7-8.4 2.6-18.7 5-21.3 5-.4 0-2.2-1.2-3.9-2.6-3.9-3.3-4.8-2.5-3 2.8 1 2.9 2.9 5.3 6 7.6 4.2 3.2 4.8 3.4 10.2 2.8 3.2-.3 8.4-1.4 11.5-2.5 3.2-1.1 5.9-1.8 6.1-1.6.2.1-.4 2-1.3 4.1-.9 2.2-3.8 11.7-6.6 21.2-2.7 9.6-5.2 17.8-5.5 18.3-.3.6-4.4 2.7-9 4.9-4.6 2.1-8.4 4.4-8.4 5 0 2.6 3 7.9 4.9 8.5 1.1.3 3.4-.1 5.1-1 1.8-.9 3.4-1.5 3.6-1.3s-.6 4.9-1.7 10.3c-1.2 6-1.9 12.2-1.6 15.4.3 4.8.8 5.8 4.6 9.2 3.9 3.7 6.9 4.8 8.4 3.2.4-.3.1-1.6-.7-2.8-2.1-3.2-2.8-8.3-1.8-14 1.1-5.8 5-21.7 6.5-25.7 1.1-3.4 4.4-4.5 17.6-6.1 10.9-1.4 11.8-2.5 6.5-7.7l-3.4-3.3-8.6.7c-7.6.6-8.6.4-8-1 .3-.8 2.6-8.1 5.1-16.2s5.7-17.7 7.1-21.4l2.6-6.8 9.6-2.9c15.8-4.8 47.8-10.6 48.8-8.9.3.4 1.4.8 2.5.8 5.2 0-1-9.6-6.9-10.5-2-.4-4.4-.8-5.2-.9-.8-.2-4.4 0-8 .5m-9.3 4.5c-.3.3-1.2.4-1.9.1-.8-.3-.5-.6.6-.6 1.1-.1 1.7.2 1.3.5m23.3.3c1.7.5-.5.9-6.7 1.4-10.7.8-24.3 3.6-35 7.2-8.4 2.8-10.7 3.1-10.1 1.3.6-1.6 14.8-6 14.8-4.6 0 .7.4.7 1.3.1 2.2-1.7 23.7-6 30.2-6.1 1.7 0 4.1.3 5.5.7m-28.3.7c-.3.3-1.2.4-1.9.1-.8-.3-.5-.6.6-.6 1.1-.1 1.7.2 1.3.5m-5.2 1.4c-1.1.5-2.7.9-3.5.9-.9 0-.8-.4.5-.9 1.1-.5 2.7-.9 3.5-.9.9 0 .8.4-.5.9m-5.8 1.6c-.3.3-1.2.4-1.9.1-.8-.3-.5-.6.6-.6 1.1-.1 1.7.2 1.3.5m-33.2 43.3c-4.8 17.4-5.5 19.3-7.2 19.8-.6.2 1.2-7 3.9-15.9 2.7-9 5-17.9 5.3-19.8.2-1.9.4-4 .5-4.5.1-.6.6.1 1.1 1.4.7 1.9-.1 6.1-3.6 19m3.4-2.2c-1.1 3.8-2.6 9.5-3.5 12.8s-2 6.4-2.5 7c-1.2 1.2-1.1.2.5-5.3.8-2.6 2.2-7.6 3.2-11.2 1.7-6.5 3.1-10 3.9-10 .2 0-.5 3-1.6 6.7m14.8 18.9c-.3.3-1.2.4-1.9.1-.8-.3-.5-.6.6-.6 1.1-.1 1.7.2 1.3.5m-25.8 24.2c-1.2 5-2.6 8.9-3 8.6-.5-.2-.4-1.7.2-3.2s1.5-5.2 2.1-8.2c1-5.7 1.7-7.5 2.4-6.7.3.2-.5 4.5-1.7 9.5m-3.9 3c-1.1 5-2.3 12.3-2.6 16.2-.4 4.4-1 6.6-1.5 5.8-1.5-2.3-.9-12 1.1-19.7 1.1-4.1 2-8.5 2-9.7 0-2.1 2.2-3.9 2.8-2.4.1.4-.6 4.8-1.8 9.8m.7 9.4c-.3.8-.6.5-.6-.6-.1-1.1.2-1.7.5-1.3.3.3.4 1.2.1 1.9m366-101c-1.6 1.3-4 7.6-7.1 19-.9 3.1-2 5.9-2.4 6.2-.5.3-5 1-10.1 1.7-10.4 1.3-11.3 2.1-8.7 7.6 1.7 3.5 1.7 3.5 6.9 3.1 2.9-.3 6-.9 6.9-1.3 1.5-.6 1.7-.2 1.3 2.5-.2 1.7-.7 4.4-1 6s-.2 3.1.4 3.5c.7.4.8 0 .4-1.1s-.3-1.5.4-1.1c.7.5 1.4-.5 1.8-2.4.8-3.7 1-3.5 1.9 1.4.6 3 .4 3.7-.5 3.1-.8-.4-1-.3-.5.4.4.7.3 1.2-.2 1.2s-1.5 2-2.1 4.4c-1.4 5.5-1.4 5.9 0 5 .8-.4.9.1.3 1.7-.4 1.3-1.5 5.3-2.4 8.9s-2.2 6.4-2.7 6.3c-.6-.1-1 2.7-1 7 0 4 .2 6.3.4 5.2 2.5-13 12.3-49.7 13.6-51 .7-.7.8-.5.4.6-.3.9-1.5 6.3-2.7 12s-2.9 11.6-3.6 13.1c-.8 1.5-1.4 3-1.3 3.5.1.4 0 1-.1 1.3s-.3 2.4-.4 4.7c-.1 2.2-.7 4.8-1.4 5.6-.6.7-.9 1.7-.5 2 .3.4 0 1.3-.7 2.2-.7.8-1 2.2-.6 3 .3.8.2 1.5-.2 1.5s-.9 1.7-1 3.7c-.2 2.1-.7 4.2-1.2 4.7-1.5 1.5-1.2 3.9.3 3 .7-.5.6-.1-.2 1-.8 1-1.6 3.4-1.8 5.4-.2 2.1-1 6.2-1.8 9.2l-1.4 5.5.5-6.5c.3-3.6 1.2-9.8 2.1-13.8.8-4.1 1.3-7.6 1-7.8-.5-.5-3.6 14.7-3.8 18.6-.1 2-.3 1.8-1-1-.8-3.5-.8-3.5-.6.7.2 2.4-.1 4.3-.5 4.3-1.5 0-.8-7.4 2.2-22.4 2.2-10.7 2.8-15.9 2.2-17.6-.8-2.1-1.1-1.4-2.6 5.1-2.8 12.7-5.6 30.2-5.6 35.2 0 4.2.5 5.3 3.1 7.8 3.7 3.4 6.7 4.4 11.2 3.5 2.6-.5 3.6-1.4 5-4.7 2.5-5.7.9-7.1-3.5-3.4l-3.3 2.8-.3-4.1c-.5-7 6-38.2 13.6-64.7 2.2-7.7 4.3-14.8 4.7-15.8.7-1.7 1.7-1.8 10.4-1.3 5.3.2 11.2.8 13.2 1.1l3.6.7 2.7-7.2c2.7-7.4 3.3-12.5 1.6-15-.9-1.3-1.4-1-3.6 1.5-1.4 1.6-3.6 4.9-5 7.2-2.3 3.8-2.8 4.1-5 3.3-1.4-.6-5-1-8-1-6.3 0-6.5-.5-3.4-9.5 1.1-3.2 2-7.5 2-9.6 0-3.5-.4-4-3.6-5.4-4.4-1.8-4.6-1.8-6.7-.3m-21 78c-.3.7-.5.2-.5-1.2s.2-1.9.5-1.3c.2.7.2 1.9 0 2.5m-1 5c-.3.7-.5.2-.5-1.2s.2-1.9.5-1.3c.2.7.2 1.9 0 2.5m-1 4c-.3.8-.6.5-.6-.6-.1-1.1.2-1.7.5-1.3.3.3.4 1.2.1 1.9m-1 31c-.3.7-.5.2-.5-1.2s.2-1.9.5-1.3c.2.7.2 1.9 0 2.5"/>
  <path fill="url(#grad5)" d="M943.8 51.7c-2.2 2.5-8 14.4-13.4 27.1-2.4 5.9-5.1 11.9-5.9 13.3s-1.2 2.9-.9 3.2c.8.8-1.6 8-3.6 10.7l-1.7 2.3-.7-4.8c-.9-5.4-4.2-9.5-7.8-9.5-1.3 0-4.8 1.5-7.8 3.2-6.4 3.8-13.6 13.9-21.9 30.4-6.1 12-6.4 15.3-2.1 21.2 2.6 3.7 3.5 4.2 6.9 4.2 7.7 0 14.7-7.8 27.3-30.2 4.5-8 10.2-17 8.3-13.1-1.8 3.9-7.6 32.7-8.5 42.7-1.4 14.3-.8 18.7 3.2 23.2 2.6 2.9 3.7 3.4 7.4 3.4 5.8 0 9.6-3.4 15.3-13.6 2.5-4.4 4.6-8.1 4.8-8.3.2-.3 1.6.8 3.1 2.2 5.6 5.4 10.7 2.2 17-10.3 1.8-3.6 5.5-9.7 8.2-13.5 2.7-3.9 7.2-10.3 10-14.3 2.8-3.9 5.2-7.2 5.4-7.2s-.2 2.4-1 5.2c-2 7.2-5.4 27.2-5.4 31.4s5.1 10.4 8.6 10.4c2.3 0 2.4-.3 2.4-5.9 0-13.8 8.8-48.9 13.6-54.2 2.1-2.4 1.7-6.6-.8-8.3-2.9-2-8.2-2-9.8-.1-1.2 1.4-1.6 1.3-4-1-5-4.7-15.4-2.3-22.1 5.3-9.8 11.1-19.5 28.7-24.9 45.1-1.9 5.7-4.1 10.6-4.8 10.9-.8.3-1.9 1.7-2.6 3.1-1.7 4.1-11 16.1-12.3 16.1-3.9 0 1.3-32.5 10.1-62.5.8-2.8 2.1-7.4 2.9-10.3 2.2-7.7 8.2-22.2 13.8-33.4 2.7-5.4 4.9-10.2 4.9-10.8 0-2-4.1-5-6.8-5-1.6 0-3.6.8-4.4 1.7m44.8 44.7c.7 3-.1 5.6-2.4 8.2-1 1-3.3 4.1-5.2 6.9-1.9 2.7-7 9.7-11.4 15.4-4.5 5.7-9.6 12.3-11.4 14.7s-3.4 4.4-3.7 4.4c-.2 0 1.2-3.7 3.1-8.3 5.4-12.6 15.2-29.1 21.1-35.6 2.9-3.3 5.3-6.4 5.3-7 0-2.3 4-1.1 4.6 1.3m-76.1 7.8c.7 4.1.2 10.4-.8 11.5-.5.4-.5-.1-.1-1.2 1.1-3-3.4 1.8-7.6 8-9.7 14.4-20.6 26.7-18.1 20.3 6.4-16.3 21.8-41.8 25.1-41.8.5 0 1.2 1.5 1.5 3.2m75.4 3.2c-.7 1.4-1.6 2.6-2.1 2.6-.4 0-.8.6-.8 1.3s-1.1 2.8-2.5 4.7c-2.2 3-2.5 3.1-2.5 1.2 0-1.2.5-2.2 1-2.2.6 0 1-.7 1-1.6 0-1.4 6.1-9.6 6.8-9 .1.2-.3 1.5-.9 3M214.2 83.9c-2 2.1-4.7 5.8-5.8 8.2-5.2 10.6-7.4 16.1-7.4 18.3 0 1.3-.7 2.9-1.5 3.6s-1.3 1.6-1 2c.6 1-1.5 7-2.5 7-.4 0-.8 1-.8 2.2-.1 3.8-5.5 25.1-8.3 32.5-1.2 3.3 1.1 7.1 5.5 8.8 2.1.9 4 1.4 4.2 1.3.1-.2 5.2-10.5 11.3-22.8 6-12.4 12.9-25.4 15.2-28.8 4-6.2 10.8-12.2 13.5-12.2.8 0 3.5 1.6 6.1 3.6 4 3.1 5.3 3.5 8.5 3.1l3.7-.5-2.5 3.6c-6.2 9.2-9.1 30.6-5 38.2 1 1.9 2.8 4.5 3.9 5.8 2.7 2.9 11.8 5.6 16.3 4.7 6.5-1.2 19-13.5 30.4-30 1.9-2.9 5.3-7.6 7.6-10.6 6.9-9.2 6.1-8.8-5 2.5-5.8 6-10.4 11.1-10.2 11.3.2.3 2-1.3 4-3.4 1.9-2.1 3.5-3.4 3.5-2.8 0 1.3-10.9 13.1-10.9 11.8 0-.6.7-1.6 1.5-2.3s1.5-1.7 1.5-2.3-2.3 1.1-5.2 3.8c-4.4 4.3-4.1 3.8 2.4-4 4.2-5 8.3-9.7 9.2-10.4 1.9-1.6 2.1-3.1.4-3.1-.6 0-.9.2-.6.5.7.8-16 17.5-24 23.9-5.7 4.6-8.2 6-11.6 6.3-4.2.5-4.4.4-5.1-2.5-.7-3.4 0-8.3 2.2-15.7 2.9-9.9 3.4-10.7 5.9-10.1 2.9.8 11.4-2.4 15.9-5.8 4.2-3.2 12.1-13.3 14-18 2.2-5.2 1.9-11.8-.5-14.4-3.1-3.3-10.8-3.3-17.7-.1-4.8 2.3-13 10.8-16.9 17.5-2.4 4.1-2.8 4.4-4.4 2.9-.9-.8-2.3-1.5-3.2-1.5-.8 0-4.6-1.6-8.3-3.6-5.5-2.9-7.6-3.5-10.6-3.1-4.7.6-10.2 4.4-9.5 6.4.3.8.2 1.2-.3.9-1.3-.8-4.4 3.1-3.5 4.5.4.7.3 1-.4.5-1.2-.7-3.4 2.6-3 4.6.2.7-.3 1.2-1.1 1s-1.1.3-.8 1.2c.4.9.1 1.5-.4 1.3-.6-.1-3.5 4.2-6.3 9.5-2.9 5.4-5.5 10-5.8 10.3-.8.8.9-7 3.1-14.3.5-1.7.7-3.2.4-3.2s0-.6.6-1.3c.6-.8.8-1.7.4-2-.3-.4-.2-.7.4-.7s1.8-2.1 2.8-4.8c1-2.6 2.3-5.4 3-6.2.6-.8 2.2-3.8 3.4-6.5 1.3-2.8 4.3-7.4 6.7-10.4 2.4-2.9 4.4-5.7 4.4-6.1 0-1.1-4.7-4-6.5-4-.8 0-3.2 1.8-5.3 3.9m75.8 7.8c0 3.3-5.7 13.7-10.1 18.7S267.7 121 265.3 121c-1.7 0 2.3-8.2 8-16.4 3.6-5.1 13.8-14.4 16-14.6.4 0 .7.8.7 1.7m-88.2 24.4c-.6 1.6-1.2 2.8-1.4 2.6-.5-.5 1.3-5.7 2-5.7.3 0 0 1.4-.6 3.1m-2.4 7.1c-.4 1.3-2 6.8-3.5 12.3s-2.8 9.4-2.8 8.7c-.1-1.5 4.8-21.2 5.5-22.4 1-1.6 1.5-.7.8 1.4m103.6.2c0 .2-.8 1-1.7 1.7-1.6 1.3-1.7 1.2-.4-.4s2.1-2.1 2.1-1.3m-110.6 28.5c-.4 2.3-.9 4-1.1 3.7-.3-.3-.2-2.3.2-4.6s.9-3.9 1.1-3.7c.3.2.2 2.3-.2 4.6"/>
  <path fill="url(#grad5)" d="M840.7 85.7c-3.1 4.6-6.4 11.9-11.2 25-2 5.4-5 13.4-6.7 17.8-2.6 6.4-3.2 9.5-3.3 15.5 0 6.8.3 8 3.2 12.4 4.2 6.2 6.8 8.2 8.8 6.6.8-.7 1.5-1.9 1.5-2.7 0-1.9 11.6-25.6 18.6-37.8 6.8-12 15.4-24.9 16.1-24.2.3.3-.1 6.5-.8 13.9-.7 7.3-1.3 19.9-1.3 28l-.1 14.6 3 4.3c5 7.1 10.4 7.7 10.5 1.1 0-1.7-.6-2.2-2.5-2.2H874v-10.8c0-5.9.7-16.6 1.6-23.7 1.8-15.6 2.1-29 .6-32.7-.7-1.6-2.2-3-3.7-3.4-1.4-.3-2.5-1-2.5-1.5 0-2-3.5-.7-6.5 2.5-4.7 5-18.9 26.3-23.7 35.6-2.3 4.4-4.3 7.8-4.5 7.6-.6-.6 5.8-18.3 9.2-25.2 1.9-4 3.7-8.4 4.1-9.8.3-1.4 1-2.9 1.5-3.2s.9-2.3.9-4.4c0-3.3-.4-4.1-3.2-5.4-4.2-2.1-4.2-2.1-7.1 2.1m24.5 7.7c.6-.4-1.5 2.8-4.7 7.2-6.4 8.8-8.3 11-6.6 7.6.7-1.3.8-2.2.2-2.2-1.3 0-2.4 3.7-1.5 5.1.4.8.3.9-.5.5-.6-.4-1.8-.2-2.6.4-2.4 2-1.7.1 1.7-4.6 1.8-2.5 3.4-4 3.8-3.4.4.7 1.2.5 2.1-.6 1.1-1.4 1.1-1.8.1-2.2-1.4-.4.2-3.7 4.2-8 1.7-2 2.2-2.1 2.4-.8.2.9.8 1.3 1.4 1m4 12.8c-.6.6-.7 0-.4-1.9.5-2.1.7-2.3 1-.9.2 1 0 2.2-.6 2.8m3.1 1c-.8 4.6-1.3 4.8-1.3.5 0-2.1.4-3.7 1-3.7.5 0 .7 1.4.3 3.2m-41.9 9c-1 2.9-1.9 5.7-2 6.3-.4 2.1-5.6 17-6.4 18.4-2.9 5 2.2-12.2 8.2-27.6 2-5.2 2.2-2.9.2 2.9m17.8-1.5c-.6.2-1 .9-.7 1.3.3.5.1 1.1-.4 1.4-.7.5-.8-1.1-.2-3.2.1-.1.7-.2 1.4-.1.9 0 .9.2-.1.6m21.8 13.7c-1.7 13.5-3.1 18.5-2.5 8.6.3-4.1.9-10.2 1.5-13.5.5-3.3 1-6.5 1.1-7 0-.6.3-.4.6.4s0 6-.7 11.5m-42 4.3c-1.1 1.7-1.1 1.7-.6 0 .3-1 .6-2.4.7-3 0-.9.2-.9.5 0 .3.7 0 2-.6 3m-2.3 7.5c-.3.8-.6.5-.6-.6-.1-1.1.2-1.7.5-1.3.3.3.4 1.2.1 1.9m-1 4c-.3.8-.6.5-.6-.6-.1-1.1.2-1.7.5-1.3.3.3.4 1.2.1 1.9m-4 2c-.3.7-.5.2-.5-1.2s.2-1.9.5-1.3c.2.7.2 1.9 0 2.5"/>
  <path fill="url(#grad5)" d="M861.3 95.2c-1.5 2.3-3.2 5.8-2.9 5.8.2 0 1.6-1.6 3-3.5 1.5-1.9 2.3-3.5 1.7-3.5-.5 0-1.3.6-1.8 1.2m282.8-10.6c-2.9 3.7-6.5 11.6-11.7 25.7-2.5 6.7-5.7 15.1-7.1 18.7-1.7 4.2-2.7 9.1-3 14-.4 6.9-.2 7.9 2.7 12.7 3.7 6.4 7.3 9.1 9.5 7.3.8-.7 1.5-2.1 1.5-3.1 0-2.2 7.9-19.3 12.9-27.9 12.7-21.7 15.2-25.9 18.1-29.8 1.7-2.4 3.3-4.2 3.5-4 .2.3-.4 9.2-2 26.3-2.2 23.8-1.5 29.8 4.1 36.4 3.9 4.5 6.7 5.2 8.4 2.2 1.7-3.3 1.2-5.1-1.4-5.1-2 0-2.5-.6-3-4.5-.7-4.3.6-22.3 2.4-35.5 1.4-9.3 1.2-24.1-.3-26.8-.6-1.3-2.9-3.3-5.1-4.5l-3.8-2.2-3.9 4.4c-5.3 6-18.8 26-23.4 34.9-2.1 4-3.9 7.1-4.1 6.9-.7-.7 5.4-17.1 10.5-28.6 2.8-6.2 5.1-12.4 5.1-13.6 0-1.5-1.1-3.2-2.9-4.4-3.8-2.7-4.5-2.6-7 .5m24.7 7.2c1.5-1.1 1.5-1.1.6.2-3 4-13 17.9-14.2 19.6-1.1 1.7-1.1 1.7-.2-.3 1.7-3.6 1.1-4-1.5-.8-3.8 4.7-2.9 1.6 1.1-4 2-2.8 3.4-4.2 3-3.2-.3 1-.2 1.7.3 1.5 1.3-.5 9.3-10.9 8.8-11.4-.2-.3-1.9 1.3-3.7 3.6-4.9 6.2-5.6 4.7-.8-1.7 3.1-4 4.4-5.2 4.6-3.9.3 1.4.6 1.5 2 .4m2.9 14.9c-.3 1-.5.2-.5-1.7s.2-2.7.5-1.8c.2 1 .2 2.6 0 3.5m3 2.5c-.2 1.3-.4.5-.4-1.7-.1-2.2.1-3.2.4-2.3.2 1 .2 2.8 0 4m-41.3 5.9c-.9 2.4-1.8 5.3-1.9 6.4-.2 1.1-1.7 5.8-3.5 10.5-1.7 4.7-3.5 9.8-4 11.5-.6 2.4-.8 2.5-.9.8-.2-3.8 10.4-35.1 11.5-34 .2.2-.3 2.4-1.2 4.8m18.6-.7c0 .2-.7.7-1.6 1-.8.3-1.2.2-.9-.4.6-1 2.5-1.4 2.5-.6m20.7 13.8c-.9 6.2-1.8 12.4-2 13.8-.3 1.4-.5.4-.6-2.2-.2-7.8 2.4-24.6 3.6-23.4.3.3-.2 5.6-1 11.8m-41.8 4.7c-.6 1.8-1.3 3-1.5 2.8s.1-1.8.7-3.6 1.3-3 1.5-2.8-.1 1.8-.7 3.6m-3.9 11.8c-1.1 1.7-1.1 1.7-.6 0 .3-1 .6-2.4.7-3 0-.9.2-.9.5 0 .3.7 0 2-.6 3M185 89c-1.2 1.6-1.8 3.5-1.5 4 .4.6.2.9-.3.8-.5-.2-5.2 6-10.4 13.7-13.8 20.4-13.2 19.4-11.4 19.1 2.1-.3 2.9-1.2 3.1-3.4.1-2.2 5.6-10.7 7-11 .6-.1 1-.8 1-1.5-.1-2.2 5.6-9.8 6.7-9.1.7.5.9.1.5-.9-.4-1.1.1-2 1.3-2.7 1.9-1 1.9-.9.5 3.1-.8 2.2-2.8 5.7-4.3 7.7-1.6 2.1-5.1 7.3-7.8 11.7-7.1 11.6-12.1 18.6-14.5 20.3-2 1.4-2.1 1.4-.8-.9.7-1.3 1.4-3 1.5-3.7s1.4-2.4 2.9-3.8c1.4-1.3 2.3-2.9 2-3.4-.3-.6-.8-1-.9-1-.2 0-3.2 4.3-6.6 9.5-3.5 5.3-6.5 9.3-6.7 9.1-.3-.2.3-3.3 1.2-6.8 1-3.4 2-7.4 2.3-8.8.5-2.5 5.6-15.3 10.3-25.8 1.7-3.9 2.1-5.7 1.3-6.9-1.2-1.9-8.2-4.6-10.1-3.9-1.4.6-7.5 13-10.3 21-2.1 6.1-1.9 7.2.4 2.8l1.5-2.7-.5 3.5c-.4 1.9-1.3 5.5-2 7.8-.8 2.4-1.7 5.8-1.9 7.5-.3 1.8-1.2 5-2 7.2-1.1 3.2-1.4 3.5-1.4 1.5-.1-2.2.7-5.6 3.9-17.9.4-1.8.5-3 .1-2.5-1.4 1.5-5.2 17.1-5.4 22.1-.1 3.7.4 5.5 2.2 7.9 3 4.1 9.5 7.7 12.2 6.9 1.9-.6 14.8-19.3 23.9-34.7 1.9-3.1 3.5-5.6 3.7-5.5.1.2-.6 3.6-1.7 7.7-2.2 8.9-5 27.1-5 32.9 0 3 .8 5.2 2.6 7.7 1.5 1.9 2.9 3.2 3.2 3 .2-.3 1.1.2 1.9 1 2.9 2.8 4.8 1.3 4.5-3.4-.2-2.3.4-9.3 1.3-15.5 1.7-11.3 9.4-46.5 11.9-54.6 1.7-5.1.7-9-2.4-9.8-1.1-.3-2-.9-2-1.4 0-2-3-.7-5 2.1m1.1 17.7c-1.2 2-1.4 1.4-.5-1.2.4-.9.9-1.4 1.1-1.1.3.2 0 1.3-.6 2.3m-12.4 12.5c-3 4.6-6.1 9.6-7 11.3-1.6 3.1-7.4 10.2-6.1 7.5.7-1.4 10.5-16.8 15.7-24.7 1.2-1.7 2.3-3 2.5-2.8s-2 4.1-5.1 8.7m10.7 4.5c-.8 3.2-2.3 10.3-3.4 15.8-2.5 12.3-3.2 13.8-2.5 6 .7-7.5 5.4-27.5 6.5-27.5.4 0 .2 2.6-.6 5.7m-21.1.8c-.3.9-.8 1.4-1 1.1-.3-.3-.2-.9.2-1.5.9-1.6 1.5-1.3.8.4m653.2-37.7c-2.3 1.5-5.6 7.2-4.9 8.3.4.8.3.9-.4.5-.6-.3-1.6.3-2.2 1.4-1.1 2-1 2.1.9 1 2.4-1.2 2.5-1.1 1.1 2.5-1.8 4.8-23 36.7-26.7 40.2-2.2 2.1-3.4 1.8-1.3-.3.6-.6 1.2-2.1 1.5-3.3.2-1.2 1.8-3.5 3.5-5.1 2.1-1.9 2.8-3.3 2.3-4.6-.4-1.1-.3-1.5.5-1 1 .6 3.6-2.7 3.7-4.9 0-1.8 4.5-8.3 6.1-8.9.9-.3 1.4-1.2 1.1-1.9-.5-1.5 5.3-9.8 6.4-9.1.5.3.9 0 .9-.6 0-2.9-3.1.5-10.1 11-4.2 6.3-7.4 12-7.2 12.8.3.7.1 1.2-.5 1-.5-.2-4.3 4.6-8.2 10.5-4 5.9-7.4 10.6-7.6 10.4s.7-4.7 2.1-9.9c2.6-10.1 6.8-21.6 11.1-29.9 3.9-7.7 2.6-10.3-5.8-12.4-2.5-.6-2.9-.3-6.3 6.4-4.2 8.5-8.6 20.1-7.5 20.1.4 0 1.1-1.2 1.4-2.6.4-1.5.9-2.4 1.2-2.1.3.2 0 2.4-.6 4.8s-1.8 7.4-2.6 11.1c-.8 3.6-2.1 8.4-2.9 10.5-1.3 3.8-1.4 3.8-1.4.8-.1-1.7 1-7 2.4-12 1.3-4.9 2.2-9.1 2-9.3-.9-.9-4.8 14.8-5.3 21-.4 5.9-.2 7 1.9 9.7 1.3 1.6 3 3 3.7 3 .6.1 1.2.5 1.2 1s1.3 1.4 2.9 2.1c5.2 2.1 5.6 1.6 22.6-25 2.3-3.6 5.2-8.2 6.4-10.3 2.6-4.3 3.7-4.4 2.1-.3-1.3 3.6-4.7 23.2-5.5 32.4-.7 6.8-.5 7.6 1.9 11.2 1.4 2.2 3 3.9 3.4 3.8s1.8.4 3 1.1c1.3.7 2.6 1 2.9.7.4-.3.7-4.1.9-8.3.2-8.8 3.2-27 6.2-38.3 1.1-4.1 2.8-11.1 3.7-15.5 1-4.4 2.4-10.2 3.2-12.8 1.3-4.3 1.3-5-.1-7.2-.9-1.4-2.3-2.5-3.1-2.5s-1.5-.5-1.5-1c0-1.2-1.1-1.3-2.5-.2m-1.4 19.9c-1.2 2-1.4 1.4-.5-1.2.4-.9.9-1.4 1.1-1.1.3.2 0 1.3-.6 2.3M803 119.2c-9.1 14.3-14.2 21.8-15.1 22.4-1.1.6 2-4.5 12.1-20 4.1-6.3 7.6-11.3 7.9-11.1.2.3-2 4.2-4.9 8.7m9.5 9.6c-1.4 6.4-3.3 14.2-4.1 17.2l-1.4 5.5.6-5.5c.6-7 6.6-31.9 7.2-30.2.2.7-.8 6.6-2.3 13M728.3 92c-3.6 2.2-10.7 15-9.9 17.8.3.9-.1 2.8-.9 4.2s-1.5 2-1.5 1.5c0-1.3-2 1.6-2 3 0 .5.5.3 1-.5 1.7-2.6 1.1.5-1.5 8.7-1.4 4.3-2.5 9.8-2.5 12.4 0 2.5-.4 4.9-1 5.5s-.6 2.2.1 4.6c1.2 4.6 8.2 11 13.8 12.7 3.7 1 4.5.9 8.8-1.3 6.1-3.1 12.8-10 18.8-19.4 7.3-11.5 9.6-17.3 10.2-26 .5-7.5.4-7.8-2.9-12.7-3.6-5.2-10.8-9.9-14-9.1-1 .2-1.8 0-1.8-.6 0-.5-.9-.7-2-.3-1 .3-3.3-.1-4.9-.9-3.8-2-3.9-2-7.8.4m21.1 7.2c5 4.4 5.3 15.4.8 24.7-1.2 2.5-2.2 5-2.2 5.7s-.3 1.4-.8 1.6c-.4.2-2.4 2.6-4.4 5.4-4.8 6.6-12.5 13.7-17.6 16.3-4.7 2.4-5.2 1.8-5.2-5.2 0-8.8 8.6-35.7 13.7-43 1.5-2.2 3.2-4.8 3.8-5.8 1.5-2.8 8.6-2.6 11.9.3m8.2 6.5c-.3.7 0 1.3.6 1.3 1.3 0 .4 11.1-1.3 14.1-1.1 2.2-3 2.1-3.7-.1-.3-.8 0-1 .8-.5 1 .6 1.2.2.8-1.3-.4-1.2-.2-2 .3-1.6.5.3.8-2.2.7-5.5-.1-3.4.1-6.4.5-6.7.3-.4.2-1.6-.4-2.8-1-2.1-1-2.1.6-.1.8 1.1 1.3 2.5 1.1 3.2m2.1 14.5c-.3.8-.6.5-.6-.6-.1-1.1.2-1.7.5-1.3.3.3.4 1.2.1 1.9m-2.1 6.6c-.8 1.5-2.4 3.6-3.7 4.7-1.7 1.5-1.5.9 1-2.8 3.5-5.2 4.9-6.2 2.7-1.9m-41.6 4.9c-1.5 7-1.9 7.8-1.5 3 .4-4.5 1.1-6.7 2-6.7.1 0-.1 1.7-.5 3.7m-2.3 12.5c-.3.8-.6.5-.6-.6-.1-1.1.2-1.7.5-1.3.3.3.4 1.2.1 1.9M1089.3 92c-3.8 2.3-10.7 15-9.8 18 .3 1 .1 2.1-.4 2.5-.7.3-.8 0-.5-.9 1-2.7-1.1-1.7-2.9 1.3-1.9 3.2-2.3 5.5-.6 3.1.9-1.3 1-1.3.6 0-.2.8-.9 1.5-1.5 1.5-1.3 0-4.1 3.5-4.1 5-.1.5.9-.1 2-1.5l2.1-2.5-1.4 2.5c-.9 1.4-2.1 2.5-2.7 2.5-.7 0-2.2 1.8-3.4 4s-2.5 4.2-2.8 4.5-3.8 4.7-7.8 9.8c-6.4 8.1-9.6 11.2-11.5 11.2-1.1 0-.6-8.8 1-17 .8-4.5 3.1-12.7 5-18.3 4.2-12.4 4.3-15 .8-16.6-4.2-1.9-6.4-.4-9.4 6.3-4.5 9.8-7.2 21.8-7.8 34.3l-.5 11.3 4.5 4.5c3.9 3.9 5.1 4.5 8.7 4.5 5.4 0 8-2.5 17.5-16.9l7.6-11.5v5c0 2.8-.4 5.4-1 6s-.6 2.2.1 4.6c1.2 4.6 8.2 11 13.8 12.7 3.7 1 4.5.9 8.8-1.3 6.1-3.1 12.8-10 18.8-19.4 7.3-11.5 9.6-17.3 10.2-26 .5-7.5.4-7.8-2.9-12.7-3.6-5.2-10.8-9.9-14-9.1-1 .2-1.8 0-1.8-.6 0-.5-.9-.7-2-.3-1 .3-3.3-.1-4.9-.9-3.8-2-3.9-2-7.8.4m21.1 7.2c5 4.4 5.3 15.4.8 24.7-1.2 2.5-2.2 5-2.2 5.7s-.3 1.4-.8 1.6c-.4.2-2.4 2.6-4.4 5.4-4.8 6.6-12.5 13.7-17.6 16.3-4.7 2.4-5.2 1.8-5.2-5.2 0-8.8 8.6-35.7 13.7-43 1.5-2.2 3.2-4.8 3.8-5.8 1.5-2.8 8.6-2.6 11.9.3m8.2 6.5c-.3.7 0 1.3.6 1.3 1.3 0 .4 11.1-1.3 14.1-1.1 2.2-3 2.1-3.7-.1-.3-.8 0-1 .8-.5 1 .6 1.2.2.8-1.3-.4-1.2-.2-2 .3-1.6.5.3.8-2.2.7-5.5-.1-3.4.1-6.4.5-6.7.3-.4.2-1.6-.4-2.8-1-2.1-1-2.1.6-.1.8 1.1 1.3 2.5 1.1 3.2m2.1 14.5c-.3.8-.6.5-.6-.6-.1-1.1.2-1.7.5-1.3.3.3.4 1.2.1 1.9m-2.1 6.6c-.8 1.5-2.4 3.6-3.7 4.7-1.7 1.5-1.5.9 1-2.8 3.5-5.2 4.9-6.2 2.7-1.9m-41.6 4.9c-1.5 7-1.9 7.8-1.5 3 .4-4.5 1.1-6.7 2-6.7.1 0-.1 1.7-.5 3.7m-2.3 12.5c-.3.8-.6.5-.6-.6-.1-1.1.2-1.7.5-1.3.3.3.4 1.2.1 1.9m-35 3.5c-.3 1-.5.2-.5-1.7s.2-2.7.5-1.8c.2 1 .2 2.6 0 3.5m-25.7-47.3c0 .8-.2 2-.3 2.8-.2.7-.2 1 0 .5.3-.4.8-.5 1.2-.2.5.2.6-.7.3-2-.5-2.7-1.2-3.3-1.2-1.1m0 7.2c0 1.4-.2 1.6-.9.6-1.2-2-4.3 11.1-3.3 13.9.9 2.2.9 2.2 1.6-.7.4-1.6.9-3.8 1.2-4.9.4-1.7.3-1.8-.6-.5-1 1.2-1.1 1-.6-1 .3-1.4.6-3.1.6-3.8s.4-1.1.9-.7c1.1.6 2.6-3.3 1.7-4.2-.3-.4-.6.2-.6 1.3m-3.3 12.6c-.3.8-.6.5-.6-.6-.1-1.1.2-1.7.5-1.3.3.3.4 1.2.1 1.9"/>
  <path fill="url(#grad5)" d="M716.6 111.5c-.9 2.6-.7 3.2.5 1.2.6-1 .9-2.1.6-2.3-.2-.3-.7.2-1.1 1.1m-410.3 2.1c-.6.3-2.4 2.2-3.9 4.2l-2.7 3.7 4.1-4c2.3-2.1 4.2-4 4.2-4.2 0-.3 0-.3-1.7.3m702.3 25.9c-.9 2.6-.7 3.2.5 1.2.6-1 .9-2.1.6-2.3-.2-.3-.7.2-1.1 1.1m-2.5 13.1c0 1.1.3 1.4.6.6.3-.7.2-1.6-.1-1.9-.3-.4-.6.2-.5 1.3"/>
</svg>